<svg xmlns="http://www.w3.org/2000/svg" width="66.786" height="63" viewBox="0 0 44.524 42"><path d="M40.665 16.951H13.59L24.09 6.905c1.506-1.581 1.506-4.137 0-5.719-1.505-1.581-3.947-1.581-5.466 0L1.14 18.141C.379 18.874 0 19.874 0 20.975v.05c0 1.101.38 2.1 1.139 2.834l17.473 16.955c1.518 1.581 3.96 1.581 5.466 0 1.505-1.582 1.505-4.138 0-5.72L13.576 25.05h27.077c2.138 0 3.871-1.81 3.871-4.049.013-2.277-1.72-4.049-3.859-4.049Z" fill="#4d92d2" fill-rule="evenodd" data-name="Icon ionic-md-arrow-round-back"/></svg>