<svg xmlns="http://www.w3.org/2000/svg" width="55" height="55" viewBox="680 526 55 55"><g data-name="Group 28"><path d="M680 553.453a27.5 27.5 0 1 1 0 .094" stroke-linejoin="round" stroke-linecap="round" stroke-width="3.7288" stroke="#000" fill="transparent" data-name="Ellipse 1"/><path d="M706.925 554.893a8.68 8.68 0 0 0 8.68-8.68 8.68 8.68 0 0 0-8.68-8.681 8.68 8.68 0 0 0-8.681 8.68 8.68 8.68 0 0 0 8.68 8.681Zm6.076 2.17h-1.132a11.818 11.818 0 0 1-4.944 1.085c-1.764 0-3.432-.393-4.944-1.085h-1.133c-5.032 0-9.114 4.083-9.114 9.115v2.821c0 1.797 1.823 8.228 3.62 8.228l11.554 3.722 12.71-4.493c1.796 0 2.498-5.66 2.498-7.457v-2.821c0-5.032-4.083-9.115-9.115-9.115Z" fill-rule="evenodd" data-name="Icon awesome-user"/></g></svg>