<svg xmlns="http://www.w3.org/2000/svg" width="42.001" height="42.001" viewBox="677 514.25 42.001 42.001"><path d="m717.802 543.929-9.188-3.938a1.969 1.969 0 0 0-2.297.566l-4.068 4.971a30.406 30.406 0 0 1-14.536-14.535l4.971-4.069c.68-.553.912-1.49.566-2.297l-3.937-9.188a1.982 1.982 0 0 0-2.256-1.14l-8.532 1.969a1.969 1.969 0 0 0-1.525 1.919c0 21.041 17.054 38.063 38.063 38.063.917 0 1.713-.632 1.92-1.526l1.968-8.531a1.993 1.993 0 0 0-1.149-2.264Z" fill-rule="evenodd" data-name="Icon awesome-phone-alt"/></svg>